<?xml version="1.0" standalone="no"?>
<!DOCTYPE svg PUBLIC "-//W3C//DTD SVG 20010904//EN"
 "http://www.w3.org/TR/2001/REC-SVG-20010904/DTD/svg10.dtd">
<svg version="1.0" xmlns="http://www.w3.org/2000/svg"
 width="1080.000000pt" height="1080.000000pt" viewBox="0 0 1080.000000 1080.000000"
 preserveAspectRatio="xMidYMid meet">
<metadata>
Created by potrace 1.14, written by Peter Selinger 2001-2017
</metadata>
<g transform="translate(0.000000,1080.000000) scale(0.100000,-0.100000)"
fill="#000000" stroke="none">
<path d="M0 9897 l0 -903 159 0 c88 1 162 4 166 8 4 3 39 -5 78 -18 48 -16 93
-24 141 -24 39 0 76 -4 83 -8 18 -11 36 -66 24 -70 -33 -11 19 -72 61 -72 65
0 86 -11 109 -59 31 -63 38 -82 41 -111 3 -21 7 -24 33 -22 17 2 35 7 40 12
16 12 79 20 92 12 7 -4 19 -39 27 -76 8 -38 24 -80 35 -95 38 -46 50 -84 66
-206 18 -132 26 -154 55 -156 11 -1 25 -3 30 -4 6 -1 18 -3 29 -4 10 0 39 -22
65 -48 39 -41 46 -54 46 -88 0 -22 6 -50 14 -61 23 -32 21 -139 -4 -225 l-21
-76 -44 -10 c-24 -5 -50 -6 -58 -2 -26 15 -40 -18 -48 -109 -4 -48 -8 -90 -8
-94 -1 -5 -7 -8 -15 -8 -20 0 -43 -55 -54 -130 -9 -59 -23 -93 -63 -157 -23
-38 -4 -68 55 -91 30 -11 72 -24 93 -28 21 -4 43 -10 48 -15 6 -4 39 -11 75
-15 39 -4 75 -14 89 -25 13 -11 34 -19 47 -19 12 0 34 -4 48 -10 29 -11 80
-85 72 -106 -3 -7 13 -44 34 -81 22 -37 43 -83 46 -103 11 -58 21 -70 57 -67
26 2 32 -2 33 -19 2 -28 13 -46 25 -39 5 4 11 0 13 -7 25 -89 29 -95 47 -91
11 3 19 9 19 14 0 5 9 9 20 9 11 0 20 3 20 8 0 4 10 12 23 17 19 9 26 5 50
-28 22 -29 25 -41 17 -56 -11 -21 -29 -128 -34 -204 -3 -36 -10 -53 -25 -64
-12 -8 -19 -18 -16 -22 7 -12 -35 -46 -80 -65 -22 -10 -63 -28 -90 -42 -28
-13 -61 -24 -73 -24 -17 0 -27 -10 -41 -42 -19 -43 -19 -43 3 -60 11 -10 37
-18 57 -18 19 0 40 -5 45 -10 6 -6 36 -12 67 -14 31 -3 61 -7 65 -10 5 -3 11
-90 15 -193 9 -313 49 -432 237 -703 9 -14 27 -44 38 -67 21 -39 118 -133 139
-133 6 0 15 -6 21 -13 7 -8 28 -12 50 -11 22 1 44 -1 49 -5 5 -3 16 -35 25
-71 24 -96 114 -302 166 -381 66 -100 93 -137 111 -156 12 -12 21 -25 21 -29
0 -4 6 -15 14 -23 7 -9 17 -26 20 -38 6 -18 4 -22 -8 -17 -12 5 -15 2 -10 -9
4 -13 -2 -16 -28 -16 -18 0 -62 -2 -98 -3 -61 -3 -65 -4 -63 -25 2 -13 -1 -23
-6 -23 -5 0 -7 -13 -5 -30 2 -16 -2 -32 -8 -36 -8 -5 -9 -2 -5 9 3 10 2 17 -3
17 -14 0 -41 -31 -35 -40 3 -5 -7 -7 -22 -5 -16 2 -22 2 -15 -1 16 -7 -3 -34
-24 -34 -7 0 -30 -16 -50 -36 -23 -21 -45 -33 -55 -31 -10 3 -20 -1 -23 -8 -2
-7 -26 -16 -53 -20 -26 -5 -55 -10 -63 -12 -8 -2 -60 -5 -115 -5 -90 -1 -102
-4 -125 -25 -13 -12 -28 -23 -32 -23 -5 0 -8 -8 -8 -17 0 -14 -2 -15 -9 -5 -7
11 -16 11 -50 1 -22 -7 -41 -16 -41 -21 0 -4 -18 -8 -40 -8 -33 0 -40 -3 -40
-20 0 -16 -7 -20 -32 -20 -18 0 -53 -5 -77 -11 -44 -10 -53 -6 -64 26 -2 5
-19 1 -39 -8 -20 -9 -42 -17 -50 -16 -7 0 -24 23 -38 52 -18 36 -33 53 -50 57
-27 7 -30 34 -9 76 8 16 7 29 -7 55 -10 19 -17 40 -16 47 5 23 -49 82 -74 82
-13 0 -24 -4 -24 -9 0 -4 -21 -14 -47 -21 -51 -14 -75 -28 -69 -39 8 -12 -10
-31 -35 -37 -44 -10 -233 -7 -349 6 -100 11 -118 16 -141 39 -59 57 -84 65
-224 68 -72 2 -159 10 -195 18 -36 9 -75 18 -88 21 -16 3 -30 22 -49 62 -21
48 -26 76 -30 172 -5 111 -18 160 -43 160 -7 0 -10 -754 -10 -2140 l0 -2140
1357 0 1357 0 81 27 c44 14 94 32 110 38 94 38 220 64 313 65 27 0 32 -4 32
-23 0 -13 -14 -42 -31 -65 l-31 -42 452 2 451 3 25 65 c22 58 47 110 93 198 8
15 18 28 23 30 4 2 8 10 8 18 0 14 48 90 126 195 46 65 197 214 234 233 14 8
66 21 117 30 96 18 189 45 258 75 65 30 105 43 205 68 52 13 127 32 165 43 66
18 118 25 340 51 171 20 220 21 290 8 97 -17 131 -37 218 -125 86 -88 141
-182 151 -259 3 -27 13 -97 21 -155 8 -58 15 -136 15 -175 0 -90 15 -182 41
-250 17 -45 25 -55 44 -55 29 0 34 17 45 161 4 64 12 124 18 135 11 22 62 152
62 159 0 3 -7 5 -15 5 -8 0 -18 -12 -21 -27 -4 -16 -15 -45 -25 -65 -11 -21
-19 -52 -19 -71 0 -18 -4 -37 -10 -43 -5 -5 -12 -50 -16 -99 -11 -148 -19
-143 -54 35 -5 25 -19 135 -30 245 -12 110 -22 209 -23 219 -1 10 4 21 10 23
8 3 23 -19 39 -56 26 -60 53 -81 106 -81 27 0 89 34 117 64 31 33 48 33 64 -1
6 -15 26 -40 42 -56 83 -80 116 -76 257 30 76 58 75 58 92 -19 3 -15 15 -43
27 -62 43 -74 135 -53 276 61 22 19 67 72 98 119 38 56 61 82 69 76 98 -74
104 -80 115 -150 24 -137 30 -260 20 -374 -23 -249 -23 -228 0 -228 20 0 24 9
33 65 3 12 10 19 21 17 9 -2 17 1 18 5 0 4 2 16 4 25 2 9 -3 19 -11 22 -8 3
-14 10 -14 15 0 6 7 8 15 5 21 -8 30 23 15 51 -10 19 -10 29 4 56 9 17 16 38
16 46 0 13 39 33 66 33 8 0 14 -5 14 -11 0 -6 -9 -9 -20 -6 -20 5 -50 -15 -50
-34 0 -6 7 -9 16 -7 10 2 19 -3 21 -9 3 -7 0 -13 -6 -13 -6 0 -11 -5 -11 -11
0 -7 11 -8 30 -4 17 4 30 3 29 -2 -5 -26 2 -34 24 -27 12 4 24 10 27 14 3 4
15 10 28 14 12 4 22 15 22 24 0 12 -3 13 -12 4 -13 -13 -48 -17 -48 -6 0 14
56 54 75 54 12 0 27 6 33 12 10 10 15 10 22 -2 8 -13 10 -12 10 3 0 13 9 17
40 17 29 0 40 -4 40 -15 0 -8 -4 -15 -10 -15 -5 0 -10 -18 -10 -40 l0 -40 -55
0 -55 0 0 -40 c0 -29 -4 -40 -15 -40 -11 0 -15 -11 -15 -40 0 -38 2 -40 30
-40 28 0 30 -2 30 -40 l0 -40 130 0 130 0 0 40 0 40 640 0 640 0 0 -40 0 -40
600 0 600 0 0 564 0 564 -50 17 c-33 11 -74 16 -120 13 -39 -2 -71 0 -73 4 -5
17 -137 45 -216 47 -83 2 -181 -20 -181 -40 0 -5 -17 -17 -37 -27 -21 -9 -51
-32 -68 -51 -16 -19 -36 -40 -42 -47 -7 -7 -13 -18 -13 -24 0 -6 -4 -9 -8 -6
-5 3 -16 -4 -25 -15 -9 -10 -24 -19 -32 -19 -8 0 -15 -4 -15 -9 0 -20 -184
-29 -250 -12 -25 6 -50 13 -57 14 -7 2 -16 6 -19 10 -4 4 -48 7 -98 7 -112 1
-316 24 -325 37 -3 6 -16 15 -28 22 -16 8 -23 21 -23 41 0 17 -4 30 -10 30 -5
0 -10 9 -10 20 0 19 -60 90 -76 90 -3 0 -20 11 -36 25 -30 26 -32 26 -207 25
-150 -1 -187 2 -248 19 -40 12 -95 21 -122 21 -31 0 -53 5 -61 15 -7 8 -9 15
-4 15 5 0 3 4 -4 8 -7 5 -15 33 -19 63 -10 90 -19 95 -180 97 -76 1 -158 5
-182 8 -26 4 -46 2 -50 -4 -3 -6 -19 -14 -35 -18 -21 -5 -27 -4 -22 5 5 7 -1
11 -14 11 -16 0 -20 5 -16 15 4 12 -4 15 -37 16 -61 0 -138 15 -146 26 -3 6
-26 19 -51 30 -25 11 -66 37 -92 59 -129 107 -233 174 -272 174 -12 0 -31 9
-41 20 -10 11 -26 20 -36 20 -10 0 -30 11 -45 25 -26 24 -26 26 -9 45 9 10 15
26 12 34 -3 8 -2 16 2 18 10 3 -46 128 -63 141 -8 6 -7 10 2 14 14 6 16 49 2
58 -6 3 -10 43 -10 89 0 46 -5 98 -11 115 -9 25 -9 42 1 70 11 35 10 41 -14
79 -14 23 -35 46 -47 52 -54 30 -86 199 -44 238 59 54 102 61 120 19 17 -39
75 -30 75 12 0 29 -20 90 -35 105 -8 8 -17 32 -21 55 -6 40 -6 41 26 48 19 3
35 13 37 24 3 10 18 22 34 28 16 5 29 15 29 20 0 6 6 11 13 11 8 0 44 29 81
64 36 35 73 67 81 70 8 3 15 10 15 16 0 5 6 10 13 10 8 0 20 12 28 27 23 46
67 95 147 166 18 16 35 39 38 51 4 19 16 24 80 35 80 13 190 50 230 75 13 9
30 16 39 16 9 0 18 6 21 14 3 8 20 20 37 27 38 16 33 12 122 87 70 59 113 103
150 157 11 15 34 45 52 64 17 20 39 57 49 81 9 25 26 57 36 72 10 14 18 31 18
38 0 6 5 21 12 33 11 21 42 101 72 192 8 22 17 66 21 97 l6 57 75 36 c42 19
102 43 134 52 56 15 63 15 127 -2 118 -31 125 -30 157 5 25 29 32 32 66 26 28
-4 43 -2 54 9 21 22 37 19 62 -12 21 -26 24 -27 56 -15 19 6 62 12 96 12 57 0
63 -2 97 -37 19 -21 38 -48 41 -59 6 -25 34 -40 86 -49 20 -3 58 -21 85 -40
26 -19 64 -43 83 -52 19 -10 53 -31 75 -49 60 -46 82 -57 92 -42 4 7 6 51 5
98 -2 55 2 99 11 125 8 22 18 60 22 85 7 43 47 117 72 133 6 4 14 21 18 37 4
16 11 33 17 36 5 4 16 20 23 36 10 26 9 41 -7 102 -19 74 -21 138 -5 170 9 17
10 18 19 3 22 -41 68 2 68 63 0 41 23 80 48 80 21 0 104 58 131 91 17 21 27
24 78 22 120 -4 135 -3 178 16 24 10 52 32 62 47 17 27 23 44 57 164 9 32 26
64 41 77 l25 22 0 2491 0 2490 -5400 0 -5400 0 0 -903z m4161 -357 c10 -6 19
-16 19 -23 0 -7 11 -28 25 -47 13 -18 30 -49 36 -69 7 -20 34 -82 61 -138 26
-57 48 -105 48 -107 0 -2 20 -46 44 -97 24 -52 53 -114 64 -139 12 -25 27 -52
33 -61 17 -23 4 -47 -28 -54 -75 -15 -148 -42 -258 -94 -66 -32 -149 -71 -185
-86 -36 -16 -87 -44 -115 -62 -27 -18 -55 -33 -62 -33 -26 0 -194 -154 -262
-241 -21 -27 -84 -58 -171 -84 -30 -9 -68 -23 -85 -30 -167 -75 -217 -103
-373 -212 -34 -24 -65 -43 -70 -43 -5 0 -16 15 -24 33 -9 17 -45 93 -80 167
-36 74 -78 164 -94 200 -16 36 -32 67 -36 68 -4 2 -8 9 -8 15 0 7 -12 35 -25
62 -14 28 -25 59 -25 71 0 11 -4 24 -9 30 -16 16 -50 124 -44 140 6 17 10 17
205 4 96 -7 180 -18 226 -31 40 -12 83 -18 96 -15 26 6 28 16 45 195 5 51 14
98 20 104 6 6 11 18 11 27 0 9 23 63 51 118 39 80 55 102 71 102 11 0 68 -26
127 -57 58 -31 130 -69 160 -85 30 -15 81 -51 114 -78 62 -52 66 -54 82 -42
14 9 55 80 55 93 0 5 13 38 29 72 16 34 32 73 36 87 4 14 17 38 29 55 11 16
28 44 36 62 9 17 40 60 70 94 30 34 59 69 64 78 16 29 49 61 63 61 8 0 23 -5
34 -10z m1047 -1581 c6 -45 52 -172 94 -258 96 -199 311 -456 457 -548 77 -49
259 -132 311 -143 205 -42 378 -64 419 -53 64 17 62 59 -4 96 -83 46 -228 180
-242 222 -3 11 -13 31 -22 44 -20 31 -51 119 -51 146 0 11 -7 30 -15 42 -37
52 -27 324 14 374 17 21 17 21 82 -46 35 -36 65 -71 67 -76 2 -5 45 -42 95
-83 51 -41 103 -86 117 -99 14 -13 48 -36 75 -52 28 -16 57 -34 65 -41 8 -7
67 -39 130 -72 63 -32 129 -66 145 -75 17 -9 36 -17 43 -17 7 0 23 -7 36 -15
12 -8 45 -20 72 -26 120 -26 253 -48 295 -49 25 0 52 -6 61 -12 8 -7 27 -47
41 -88 32 -93 114 -262 163 -332 20 -29 67 -84 104 -123 38 -38 83 -86 102
-105 60 -63 172 -162 196 -173 46 -21 60 -72 72 -248 13 -208 13 -347 0 -446
-12 -88 -37 -199 -52 -227 -22 -41 -38 -205 -48 -485 -6 -163 -15 -345 -20
-405 -11 -125 -4 -148 36 -121 26 17 40 5 26 -22 -6 -10 -13 -64 -17 -120 -5
-68 -12 -106 -21 -114 -8 -6 -14 -17 -14 -24 0 -21 -47 -72 -97 -107 -38 -26
-43 -32 -29 -40 13 -7 29 1 68 32 96 76 122 125 132 254 7 80 12 97 48 158 22
38 51 78 64 91 13 12 24 27 24 33 0 7 25 37 55 68 38 38 63 56 80 56 30 0 34
26 5 35 -27 9 -47 -4 -109 -70 -29 -31 -57 -53 -62 -48 -4 4 11 46 35 93 24
47 56 126 70 175 15 50 32 102 38 117 12 31 43 45 63 28 29 -24 75 -108 90
-165 17 -69 20 -278 4 -340 -6 -22 -16 -65 -24 -95 -20 -81 -30 -111 -54 -155
-11 -22 -21 -48 -21 -57 0 -10 -3 -18 -8 -18 -4 0 -23 -28 -42 -62 -19 -35
-42 -72 -53 -83 -10 -11 -25 -32 -33 -47 -19 -36 -180 -180 -262 -232 -108
-70 -202 -115 -275 -130 -37 -7 -70 -10 -72 -5 -3 4 10 30 30 57 19 27 35 53
35 57 0 5 6 16 14 24 37 43 112 200 153 321 8 25 18 54 23 65 24 55 51 155 48
174 -6 43 -23 21 -54 -71 -17 -51 -34 -100 -37 -108 -4 -8 -23 -58 -42 -110
-42 -111 -104 -234 -151 -302 -19 -26 -34 -51 -34 -54 0 -18 -139 -180 -205
-240 -43 -38 -98 -89 -123 -114 -53 -51 -88 -79 -163 -130 -28 -19 -75 -54
-105 -78 -30 -23 -78 -53 -106 -66 -109 -49 -134 -59 -168 -67 -19 -4 -65 -17
-102 -28 -38 -12 -98 -30 -135 -41 -38 -12 -129 -32 -203 -45 -74 -13 -178
-35 -231 -49 -122 -31 -254 -46 -413 -46 l-124 0 -53 48 c-29 26 -75 69 -103
96 -28 26 -74 63 -102 82 -70 47 -326 152 -397 164 -31 5 -61 11 -66 15 -16 9
-219 43 -331 55 -193 21 -240 30 -298 59 -78 39 -175 71 -216 71 -18 0 -64 11
-102 25 -89 33 -224 43 -338 25 -75 -12 -86 -11 -122 6 -39 18 -134 88 -210
154 -22 19 -76 64 -120 99 -90 74 -241 227 -282 286 -15 22 -29 42 -32 45 -3
3 -10 14 -17 25 -19 33 -134 218 -152 245 -9 14 -36 70 -60 125 -24 55 -47
105 -51 110 -4 6 -11 33 -14 60 -4 28 -19 84 -32 125 -14 41 -30 113 -35 160
-17 141 -25 161 -91 234 -53 59 -62 74 -66 115 -5 56 22 118 62 145 31 19 34
46 7 46 -45 0 -111 -103 -111 -173 0 -55 8 -74 56 -134 37 -45 42 -68 19 -77
-19 -7 -20 -36 -1 -36 8 0 22 7 31 16 9 10 20 13 24 8 16 -17 31 -79 32 -134
1 -30 8 -75 15 -100 18 -59 17 -95 -1 -110 -13 -10 -22 -8 -56 16 -105 73
-189 183 -275 361 -103 215 -125 302 -127 513 0 87 4 142 15 180 9 30 19 78
23 105 8 58 35 126 83 207 52 91 115 110 169 51 44 -47 56 -74 64 -146 4 -40
11 -99 14 -132 4 -33 13 -78 20 -100 7 -22 16 -56 20 -75 8 -38 42 -100 55
-100 4 0 10 19 14 41 7 42 42 177 56 214 9 23 36 124 55 205 7 30 30 118 50
195 20 77 47 187 60 245 13 58 31 130 39 160 8 30 20 75 26 99 18 68 35 87
134 147 50 31 117 74 150 96 32 23 73 48 91 57 18 9 53 35 77 57 24 23 58 49
76 58 64 33 337 290 483 454 l55 63 290 3 c311 3 405 13 567 61 49 14 116 38
150 53 34 16 82 35 107 42 25 8 50 17 55 20 10 7 108 62 160 89 17 9 41 24 55
34 31 21 44 18 48 -14z m2992 -3328 c0 -5 -7 -14 -15 -21 -12 -10 -15 -10 -15
2 0 8 3 18 7 21 9 10 23 9 23 -2z m-2390 -2013 c41 -19 82 -41 90 -49 8 -8 44
-36 80 -61 84 -60 250 -231 250 -258 0 -26 -14 -25 -77 4 -28 14 -79 32 -113
40 -62 16 -123 52 -117 70 2 5 -22 35 -52 65 -31 31 -65 68 -76 82 -21 26
-128 89 -152 89 -16 0 -18 51 -2 67 13 13 65 -2 169 -49z m1070 -712 c95 -21
235 -77 400 -162 142 -71 150 -77 249 -179 89 -93 108 -118 151 -208 52 -108
81 -190 105 -292 8 -33 18 -78 24 -100 9 -36 15 -146 12 -218 -1 -21 -9 -31
-36 -44 -33 -16 -36 -15 -71 3 -19 10 -66 48 -103 84 -54 52 -75 81 -104 146
-19 44 -39 92 -42 107 -4 14 -12 31 -19 36 -13 11 -105 1 -216 -22 -43 -9 -77
-11 -100 -5 -19 5 -55 12 -80 16 -25 5 -54 13 -65 19 -11 7 -41 21 -68 33 -52
24 -67 53 -46 92 16 29 26 293 11 311 -5 6 -15 37 -22 67 -6 30 -19 70 -28 87
-38 73 -111 190 -126 202 -9 7 -16 20 -16 27 0 19 104 19 190 0z m833 -408
c110 -46 268 -167 299 -229 91 -185 99 -206 117 -320 21 -131 9 -271 -31 -346
-25 -46 -52 -59 -43 -20 3 12 7 83 8 157 2 127 0 140 -27 215 -16 44 -32 82
-35 85 -3 3 -19 24 -35 48 -38 55 -93 111 -136 137 -23 14 -47 46 -78 105 -25
47 -58 104 -73 128 -28 41 -35 62 -23 62 3 0 29 -10 57 -22z m208 -21 c-1 -12
-15 -9 -19 4 -3 6 1 10 8 8 6 -3 11 -8 11 -12z m-1037 -408 c88 -47 163 -62
301 -61 84 0 146 5 177 15 46 14 48 14 63 -9 8 -13 15 -29 15 -36 0 -7 18 -49
40 -93 22 -44 40 -89 40 -100 0 -11 -24 -47 -53 -80 -112 -128 -186 -189 -244
-201 -30 -6 -34 -3 -63 42 l-32 49 4 120 c3 87 9 129 21 152 20 37 22 66 5 61
-22 -8 -49 -77 -63 -159 -8 -50 -19 -87 -28 -93 -8 -6 -25 -18 -37 -26 -12 -8
-43 -31 -69 -50 -25 -19 -61 -42 -80 -52 -33 -17 -35 -17 -72 4 -22 12 -41 30
-45 40 -3 10 -9 18 -14 18 -14 0 -22 53 -21 150 0 55 5 96 11 98 5 2 10 9 10
15 0 7 7 25 15 41 8 15 12 38 9 51 -3 13 1 34 10 49 9 14 23 37 31 51 19 30
20 30 69 4z m-174 -182 c0 -7 -4 -17 -10 -23 -5 -5 -11 -47 -12 -92 l-2 -83
-46 -37 c-24 -20 -53 -45 -63 -55 -12 -12 -30 -17 -54 -15 -32 3 -38 7 -51 44
-20 55 -10 92 31 109 34 14 114 79 163 132 32 35 44 40 44 20z m1520 -149 c0
-10 -4 -18 -10 -18 -5 0 -10 15 -10 33 0 24 3 28 10 17 5 -8 10 -23 10 -32z
m70 -83 c0 -8 -4 -15 -10 -15 -5 0 -7 7 -4 15 4 8 8 15 10 15 2 0 4 -7 4 -15z
m-106 -49 c-3 -15 -8 -25 -11 -23 -2 3 -1 17 3 31 3 15 8 25 11 23 2 -3 1 -17
-3 -31z m1996 -351 c10 -13 9 -15 -9 -15 -12 0 -21 6 -21 15 0 8 4 15 9 15 5
0 14 -7 21 -15z"/>
<path d="M4159 7535 c-74 -18 -157 -56 -197 -89 -54 -46 -27 -46 66 0 166 82
315 90 497 27 91 -32 189 -80 211 -104 20 -22 44 -25 44 -6 0 15 -117 107
-135 107 -7 0 -33 9 -59 20 -118 53 -311 73 -427 45z"/>
<path d="M6865 6985 c-5 -2 -22 -6 -37 -9 -16 -4 -28 -13 -28 -22 0 -13 7 -14
43 -7 23 4 107 8 187 8 123 0 156 -3 217 -23 116 -36 238 -127 304 -228 14
-21 39 -59 55 -83 16 -24 35 -54 42 -68 16 -28 36 -21 26 10 -3 11 -23 45 -43
75 -20 30 -41 63 -48 74 -42 74 -210 216 -282 238 -14 5 -44 16 -66 24 -30 11
-81 15 -200 15 -88 0 -164 -2 -170 -4z"/>
<path d="M3946 6796 c-22 -8 -58 -18 -80 -22 -59 -9 -228 -95 -274 -138 -143
-134 -155 -150 -227 -292 -71 -139 -96 -221 -76 -252 12 -19 43 -11 56 13 45
87 103 183 126 210 16 18 29 36 29 39 0 17 106 143 162 192 70 61 86 69 208
109 72 23 101 27 205 27 l120 1 90 -43 c50 -24 113 -62 140 -84 52 -41 135
-137 135 -155 0 -6 3 -11 8 -11 4 -1 23 -23 42 -50 32 -45 75 -80 98 -80 21 0
22 35 1 94 -48 143 -92 202 -244 332 -70 60 -90 71 -170 96 -82 26 -294 34
-349 14z"/>
<path d="M6692 6340 c-40 -10 -83 -25 -95 -32 -12 -8 -40 -19 -62 -26 -28 -8
-64 -34 -116 -84 -110 -106 -149 -160 -152 -205 -2 -37 -1 -38 34 -41 31 -3
40 2 65 34 95 121 196 196 318 234 46 15 287 10 307 -7 8 -6 30 -13 50 -17
126 -23 259 -150 342 -326 52 -111 55 -130 61 -320 3 -96 5 -178 6 -182 0 -5
6 -8 14 -8 29 0 48 80 53 227 7 179 -4 239 -68 368 -56 111 -54 109 -163 217
-74 74 -97 91 -156 119 -14 6 -32 15 -40 19 -9 4 -31 11 -50 15 -19 4 -54 13
-78 21 -58 19 -181 16 -270 -6z"/>
<path d="M4025 6323 c-11 -3 -24 -9 -30 -13 -5 -4 -27 -13 -48 -20 -41 -13
-115 -82 -154 -144 -28 -44 -53 -130 -53 -184 0 -21 9 -71 21 -112 23 -86 68
-147 132 -184 54 -30 180 -60 215 -51 15 4 43 9 62 12 42 5 126 52 161 90 73
79 125 261 99 347 -29 99 -126 226 -171 226 -8 0 -27 9 -44 20 -23 15 -46 20
-100 19 -38 -1 -79 -4 -90 -6z"/>
<path d="M2150 5935 c0 -2 14 -31 31 -62 145 -266 144 -260 83 -315 -32 -29
-45 -58 -26 -58 11 0 86 80 100 107 10 18 5 35 -36 115 -45 89 -58 111 -106
185 -18 28 -46 45 -46 28z"/>
<path d="M6592 5799 c-62 -31 -175 -162 -192 -222 -18 -65 -7 -196 20 -252 32
-65 100 -131 171 -165 56 -26 75 -30 152 -30 93 0 109 5 198 67 55 38 69 59
97 142 16 46 22 89 22 148 0 74 -3 89 -38 160 -41 87 -59 108 -117 143 -35 21
-56 24 -155 28 -103 3 -120 1 -158 -19z"/>
<path d="M2126 5718 c-31 -104 -38 -151 -37 -259 1 -128 22 -211 55 -217 21
-4 21 26 1 55 -20 29 -31 218 -16 298 5 33 13 77 17 98 5 25 3 37 -5 37 -6 0
-13 -6 -15 -12z"/>
<path d="M3436 5661 c-7 -10 100 -131 115 -131 5 0 27 -13 49 -29 50 -36 202
-91 253 -91 58 0 16 25 -85 50 -20 6 -65 23 -100 40 -60 29 -82 44 -153 108
-64 57 -73 63 -79 53z"/>
<path d="M2200 5485 c0 -8 5 -15 10 -15 6 0 10 7 10 15 0 8 -4 15 -10 15 -5 0
-10 -7 -10 -15z"/>
<path d="M5247 5133 c-14 -13 -6 -32 16 -38 12 -4 34 -19 50 -33 23 -22 27
-33 27 -83 0 -52 12 -81 27 -65 3 3 8 28 11 56 6 65 -18 113 -74 146 -45 26
-48 27 -57 17z"/>
<path d="M6990 4882 c-58 -22 -79 -25 -195 -25 -71 0 -141 2 -155 4 -47 7 -35
-16 15 -29 74 -18 232 -17 302 3 67 19 126 48 131 64 6 17 -26 11 -98 -17z"/>
<path d="M3510 4658 c0 -22 13 -34 70 -64 30 -16 57 -31 60 -34 3 -3 34 -23
70 -45 67 -40 99 -63 215 -150 36 -27 77 -57 89 -65 24 -15 76 -52 201 -141
39 -28 88 -62 110 -77 33 -22 164 -117 200 -144 47 -36 217 -172 242 -195 43
-37 112 -87 142 -103 34 -18 153 -8 287 23 121 29 196 44 389 81 72 14 168 34
215 46 47 12 108 25 136 29 28 5 60 13 70 19 11 5 46 13 79 17 33 4 74 11 90
16 17 5 57 13 90 17 88 13 374 71 415 84 19 6 60 16 90 23 30 6 55 15 55 20 0
17 -46 17 -114 2 -127 -29 -257 -56 -371 -77 -63 -12 -146 -28 -185 -35 -38
-8 -86 -16 -106 -19 -20 -2 -41 -6 -46 -9 -5 -3 -49 -11 -97 -17 -48 -6 -95
-15 -104 -20 -9 -5 -42 -13 -72 -19 -49 -9 -121 -24 -315 -66 -33 -7 -89 -20
-125 -29 -105 -25 -272 -56 -305 -56 -29 0 -96 44 -225 149 -43 35 -111 83
-150 106 -10 5 -44 28 -76 51 -33 23 -99 69 -149 103 -86 60 -127 89 -317 226
-95 69 -116 82 -140 91 -10 3 -18 10 -18 14 0 4 -15 17 -32 29 -18 11 -71 47
-118 81 -47 33 -90 60 -96 60 -6 0 -17 6 -23 14 -20 24 -131 78 -131 64z"/>
<path d="M8337 4563 c-4 -3 -7 -14 -7 -24 0 -9 -7 -30 -15 -45 -8 -16 -15 -37
-15 -46 0 -10 -20 -60 -44 -112 -46 -98 -120 -187 -172 -206 -28 -11 -24 -30
6 -30 31 0 73 30 111 79 47 60 95 148 104 189 4 17 10 32 14 32 10 0 41 111
41 145 0 24 -10 32 -23 18z"/>
<path d="M2751 3964 c0 -11 3 -14 6 -6 3 7 2 16 -1 19 -3 4 -6 -2 -5 -13z"/>
<path d="M5236 376 c-8 -14 -20 -42 -25 -63 -6 -21 -17 -60 -26 -88 -28 -88
-33 -109 -40 -167 -5 -49 -4 -58 9 -58 11 0 16 10 16 33 0 17 14 82 31 142 16
61 34 125 39 144 5 18 13 38 19 44 13 13 14 37 2 37 -5 0 -16 -11 -25 -24z"/>
<path d="M7824 205 c8 -28 12 -32 14 -16 2 13 11 21 23 21 10 0 19 5 19 10 0
6 -6 10 -12 10 -7 0 -23 3 -34 6 -21 5 -21 4 -10 -31z"/>
<path d="M7831 144 c0 -11 3 -14 6 -6 3 7 2 16 -1 19 -3 4 -6 -2 -5 -13z"/>
</g>
</svg>
